<svg width="70" height="70" xmlns="http://www.w3.org/2000/svg" xmlns:xlink="http://www.w3.org/1999/xlink" xml:space="preserve" overflow="hidden"><g transform="translate(-2274 -39)"><path d="M2325.77 74C2325.77 75.2082 2324.79 76.1875 2323.58 76.1875L2299.7 76.1875 2306.17 82.6625C2306.99 83.5464 2306.95 84.9306 2306.06 85.7542 2305.22 86.537 2303.92 86.537 2303.08 85.7542L2292.87 75.5458C2292.02 74.6918 2292.02 73.3082 2292.87 72.4542L2303.08 62.2458C2303.96 61.4222 2305.35 61.4711 2306.17 62.355 2306.95 63.1951 2306.95 64.4974 2306.17 65.3375L2299.7 71.8125 2323.58 71.8125C2324.79 71.8125 2325.77 72.7918 2325.77 74Z" fill="#033B55"/><path d="M2281.29 74C2281.29 89.3029 2293.7 101.708 2309 101.708 2324.3 101.708 2336.71 89.3029 2336.71 74 2336.71 58.6971 2324.3 46.2917 2309 46.2917 2293.7 46.2917 2281.29 58.6971 2281.29 74ZM2285.67 74C2285.67 61.1134 2296.11 50.6667 2309 50.6667 2321.89 50.6667 2332.33 61.1134 2332.33 74 2332.33 86.8866 2321.89 97.3333 2309 97.3333 2296.11 97.3333 2285.67 86.8866 2285.67 74Z" fill="#033B55"/></g></svg>