<svg width="53" height="54" xmlns="http://www.w3.org/2000/svg" xmlns:xlink="http://www.w3.org/1999/xlink" xml:space="preserve" overflow="hidden"><g transform="translate(-52 -444)"><path d="M27.6042 16.5625 25.3958 16.5625C24.1812 16.5625 23.1875 15.5687 23.1875 14.3542L23.1875 9.9375C23.1875 8.72292 24.1812 7.72917 25.3958 7.72917L27.6042 7.72917C28.8187 7.72917 29.8125 8.72292 29.8125 9.9375L29.8125 14.3542C29.8125 15.5687 28.8187 16.5625 27.6042 16.5625Z" transform="matrix(1 0 0 1.01887 52 444)"/><path d="M44.1667 27.6042 30.9167 27.6042 30.9167 25.3958 44.1667 25.3958 44.1667 27.6042ZM44.1667 34.2292 30.9167 34.2292 30.9167 32.0208 44.1667 32.0208 44.1667 34.2292ZM44.1667 40.8542 30.9167 40.8542 30.9167 38.6458 44.1667 38.6458 44.1667 40.8542ZM26.5 40.8542 8.83333 40.8542 8.83333 36.4375C8.83333 35.775 9.16458 35.1125 9.71667 34.6708 10.9312 33.7875 12.4771 33.0146 14.0229 32.5729 15.2375 32.2417 16.4521 32.0208 17.6667 32.0208 18.9917 32.0208 20.2062 32.2417 21.3104 32.5729 22.8563 33.0146 24.4021 33.6771 25.6167 34.6708 26.1688 35.1125 26.5 35.775 26.5 36.4375L26.5 40.8542ZM17.6667 22.0833C20.0958 22.0833 22.0833 24.0708 22.0833 26.5 22.0833 28.9292 20.0958 30.9167 17.6667 30.9167 15.2375 30.9167 13.25 28.9292 13.25 26.5 13.25 24.0708 15.2375 22.0833 17.6667 22.0833ZM46.375 14.3542 32.0208 14.3542C32.0208 16.7833 30.0333 18.7708 27.6042 18.7708L25.3958 18.7708C22.9667 18.7708 20.9792 16.7833 20.9792 14.3542L6.625 14.3542C5.41042 14.3542 4.41667 15.3479 4.41667 16.5625L4.41667 43.0625C4.41667 44.2771 5.41042 45.2708 6.625 45.2708L46.375 45.2708C47.5896 45.2708 48.5833 44.2771 48.5833 43.0625L48.5833 16.5625C48.5833 15.3479 47.5896 14.3542 46.375 14.3542Z" transform="matrix(1 0 0 1.01887 52 444)"/></g></svg>