<svg width="87" height="86" xmlns="http://www.w3.org/2000/svg" xmlns:xlink="http://www.w3.org/1999/xlink" xml:space="preserve" overflow="hidden"><g transform="translate(-239 -908)"><path d="M70.365 20.4617C60.8634 19.7048 52.0035 15.3694 45.5755 8.33125 44.3638 6.92689 42.2431 6.77069 40.8387 7.98238 40.714 8.08996 40.5975 8.20657 40.4899 8.33125 34.0619 15.3694 25.2019 19.7048 15.7004 20.4617 13.9348 20.6272 12.5892 22.1159 12.6026 23.8892L12.6026 32.5367C12.6026 51.3366 24.5593 68.5339 41.1609 79.1755 42.3012 79.9083 43.7642 79.9083 44.9045 79.1755 61.5061 68.5312 73.4628 51.3366 73.4628 32.5367L73.4628 23.8892C73.4762 22.1159 72.1306 20.6272 70.365 20.4617ZM67.6399 32.5367C67.6399 47.4971 58.7272 62.5892 43.7982 72.9173L43.0331 73.4467 42.269 72.9173C27.339 62.5883 18.4246 47.4926 18.4246 32.5367L18.4246 26.041 19.5569 25.8618C27.9931 24.5278 35.8452 20.7247 42.1221 14.9326L43.0322 14.0941 43.9433 14.9326C50.22 20.7247 58.0717 24.5278 66.5076 25.8618L67.6399 26.041Z" fill="#084F6A" transform="matrix(1.01163 0 0 1 239 908)"/><path d="M43.0322 17.7267C36.8124 23.1665 29.2392 26.8261 21.1121 28.3191L21.1121 32.5367C21.1121 46.3567 29.2884 60.3639 43.0331 70.1706 56.7761 60.3657 64.9524 46.3576 64.9524 32.5367L64.9524 28.3191C56.8253 26.8261 49.2521 23.1665 43.0322 17.7267ZM40.7317 52.7046 31.6731 43.645 34.7512 40.5669 40.7317 46.5475 52.9796 34.2997 56.0577 37.3786Z" fill="#084F6A" transform="matrix(1.01163 0 0 1 239 908)"/></g></svg>