<svg width="53" height="53" xmlns="http://www.w3.org/2000/svg" xmlns:xlink="http://www.w3.org/1999/xlink" xml:space="preserve" overflow="hidden"><g transform="translate(-54 -597)"><path d="M99.7677 618.586C99.6021 618.586 99.4365 618.586 99.2708 618.586L97.8354 614.722C101.148 612.845 102.307 608.649 100.485 605.336 98.6083 602.024 94.4125 600.865 91.1 602.686 89.499 603.57 88.2844 605.116 87.8427 606.882L82.7083 606.33C82.3219 603.901 80.0583 602.19 77.6292 602.576 75.4208 602.907 73.8198 604.784 73.8198 606.993 73.8198 607.766 74.0406 608.539 74.4271 609.256L68.2438 615.329C67.0844 614.446 65.649 613.949 64.1583 613.949 60.349 613.949 57.2573 617.041 57.2573 620.85 57.2573 624.659 60.349 627.751 64.1583 627.751L65.5385 636.032C63.275 637.026 62.226 639.676 63.2198 641.94 64.2135 644.203 66.8635 645.252 69.1271 644.258 71.225 643.375 72.274 641.056 71.6667 638.848L76.525 636.308C79.6719 639.786 85.0823 640.062 88.6156 636.916 90.3823 635.315 91.4313 632.996 91.4313 630.622 91.4313 630.015 91.376 629.352 91.2104 628.745L96.5656 625.984C98.2219 627.861 101.037 628.027 102.915 626.371 104.792 624.715 104.957 621.899 103.301 620.022 102.252 619.139 101.037 618.586 99.7677 618.586L99.7677 618.586ZM99.7677 620.243C100.485 620.243 101.037 620.795 101.037 621.513 101.037 622.23 100.485 622.782 99.7677 622.782 99.05 622.782 98.4979 622.23 98.4979 621.513 98.4979 621.513 98.4979 621.513 98.4979 621.513 98.4979 620.795 99.05 620.243 99.7677 620.243L99.7677 620.243ZM94.4677 604.508C95.5167 604.508 96.4 605.392 96.4 606.441 96.4 607.49 95.5167 608.373 94.4677 608.373 93.4187 608.373 92.5354 607.49 92.5354 606.441 92.5354 606.441 92.5354 606.441 92.5354 606.441 92.5354 605.392 93.3635 604.508 94.4677 604.508ZM90.5479 610.802C90.5479 610.526 90.7135 610.195 90.9344 610.029 91.4865 609.643 92.149 609.311 92.8115 609.146 93.3083 608.98 93.8604 608.925 94.4125 608.925 94.9646 608.925 95.5167 609.035 96.0135 609.146 96.676 609.311 97.3385 609.643 97.8906 610.084 98.1115 610.25 98.2771 610.581 98.2771 610.857L98.2771 612.348 90.5479 612.348 90.5479 610.802ZM78.2365 604.177C78.9542 604.177 79.5062 604.729 79.5062 605.447 79.5062 606.165 78.9542 606.717 78.2365 606.717 77.5188 606.717 76.9667 606.165 76.9667 605.447 76.9667 605.447 76.9667 605.447 76.9667 605.447 76.9667 604.784 77.5188 604.177 78.2365 604.177L78.2365 604.177ZM75.6417 608.318C75.6417 608.097 75.7521 607.931 75.9177 607.821 76.3042 607.545 76.7458 607.379 77.1875 607.269 77.5188 607.158 77.9052 607.103 78.2365 607.103 78.5677 607.103 78.9542 607.158 79.2854 607.269 79.7271 607.379 80.1135 607.6 80.5 607.876 80.6656 607.986 80.776 608.207 80.776 608.373L80.776 609.367 75.6969 609.367 75.6969 608.318ZM64.0479 616.654C65.0969 616.654 65.9802 617.537 65.9802 618.586 65.9802 619.635 65.0969 620.519 64.0479 620.519 62.999 620.519 62.1156 619.635 62.1156 618.586 62.1156 618.586 62.1156 618.586 62.1156 618.586 62.1708 617.537 62.999 616.654 64.0479 616.654L64.0479 616.654ZM60.1833 624.439 60.1833 622.948C60.1833 622.672 60.349 622.341 60.5698 622.175 61.1219 621.789 61.7844 621.457 62.4469 621.292 62.9437 621.126 63.4958 621.071 64.0479 621.071 64.6 621.071 65.1521 621.181 65.649 621.292 66.3115 621.457 66.974 621.789 67.526 622.23 67.7469 622.396 67.9125 622.727 67.9125 623.003L67.9125 624.494 60.1833 624.439ZM69.7344 642.436 64.6 642.436 64.6 641.443C64.6 641.222 64.7104 641.056 64.876 640.946 65.2625 640.67 65.7042 640.449 66.1458 640.339 66.4771 640.228 66.8635 640.173 67.1948 640.173 67.526 640.173 67.9125 640.228 68.2438 640.339 68.6854 640.449 69.0719 640.67 69.4583 640.946 69.624 641.056 69.7344 641.277 69.7344 641.443L69.7344 642.436ZM65.8698 638.572C65.8698 637.854 66.4219 637.302 67.1396 637.302 67.8573 637.302 68.4094 637.854 68.4094 638.572 68.4094 639.29 67.8573 639.842 67.1396 639.842 66.4771 639.897 65.925 639.29 65.8698 638.572L65.8698 638.572ZM70.2865 637.026C69.5687 636.308 68.575 635.867 67.5813 635.756L66.201 627.475C67.526 627.033 68.6854 626.205 69.5135 625.101L74.6479 627.806C73.8198 630.015 73.9854 632.499 75.0896 634.597L70.2865 637.026ZM75.6969 625.764 70.6177 623.114C70.8385 622.396 70.949 621.678 70.949 620.905 70.949 619.47 70.5073 618.09 69.6792 616.93L75.8625 610.912C77.9604 612.182 80.7208 611.575 81.9906 609.477 82.1562 609.201 82.2667 608.925 82.3771 608.649L87.5115 609.201C87.6219 611.189 88.6156 613.066 90.2167 614.28L85.6896 622.727C82.101 621.292 77.9604 622.561 75.6969 625.764L75.6969 625.764ZM85.0823 627.806C85.0823 629.131 83.9781 630.18 82.6531 630.18 81.3281 630.18 80.2792 629.131 80.2792 627.806 80.2792 626.481 81.3281 625.432 82.6531 625.432 82.6531 625.432 82.6531 625.432 82.7083 625.432 84.0333 625.432 85.0823 626.481 85.0823 627.806L85.0823 627.806ZM87.4563 635.039 77.9052 635.039 77.9052 633.217C77.9052 632.83 78.0708 632.499 78.4021 632.278 79.1198 631.781 79.8927 631.395 80.7208 631.119 81.3833 630.953 82.0458 630.843 82.7083 630.843 83.3708 630.843 84.0333 630.953 84.6958 631.119 85.524 631.34 86.3521 631.726 87.0146 632.278 87.2906 632.499 87.5115 632.885 87.5115 633.217L87.4563 635.039ZM95.2958 623.114C95.2958 623.445 95.351 623.776 95.4615 624.107L90.3823 626.757C89.775 625.543 88.8365 624.549 87.7323 623.776L92.2594 615.329C92.9771 615.605 93.75 615.716 94.5229 615.716 94.9646 615.716 95.4062 615.66 95.8479 615.605L97.2833 619.47C95.9583 620.243 95.2406 621.623 95.2958 623.114ZM102.307 625.322 97.1729 625.322 97.1729 624.328C97.1729 624.107 97.2833 623.942 97.449 623.831 97.8354 623.555 98.2771 623.334 98.7188 623.224 99.05 623.114 99.4365 623.058 99.7677 623.058 100.099 623.058 100.485 623.114 100.817 623.224 101.258 623.334 101.645 623.555 102.031 623.831 102.197 623.942 102.307 624.162 102.307 624.328L102.307 625.322Z"/></g></svg>