<svg width="53" height="53" xmlns="http://www.w3.org/2000/svg" xmlns:xlink="http://www.w3.org/1999/xlink" xml:space="preserve" overflow="hidden"><g transform="translate(-50 -687)"><path d="M62.6979 716.812 75.3958 716.812 75.3958 720.677 77.6042 720.677 77.6042 716.812 90.3021 716.812 90.3021 720.677 92.5104 720.677 92.5104 714.604 77.6042 714.604 77.6042 710.74 75.3958 710.74 75.3958 714.604 60.4896 714.604 60.4896 720.677 62.6979 720.677 62.6979 716.812Z"/><path d="M91.4062 722.885C88.3571 722.885 85.8854 725.357 85.8854 728.406 85.8854 731.455 88.3571 733.927 91.4062 733.927 94.4554 733.927 96.9271 731.455 96.9271 728.406 96.9271 725.357 94.4554 722.885 91.4062 722.885ZM91.4062 724.718C92.2789 724.718 92.9865 725.425 92.9869 726.297 92.9871 727.17 92.28 727.878 91.4073 727.878 90.5347 727.878 89.827 727.171 89.8267 726.298 89.8267 726.298 89.8267 726.298 89.8267 726.297 89.8267 725.425 90.5339 724.718 91.4062 724.718ZM94.5658 731.199 88.2467 731.199 88.2467 729.878C88.2479 729.63 88.3649 729.396 88.563 729.246 89.0302 728.91 89.5537 728.66 90.1089 728.509 90.5276 728.371 90.9654 728.3 91.4062 728.299 91.8466 728.311 92.2834 728.382 92.7053 728.509 93.2684 728.638 93.7962 728.89 94.2511 729.246 94.4553 729.391 94.5739 729.628 94.5675 729.878Z"/><path d="M76.5 722.885C73.451 722.885 70.9792 725.357 70.9792 728.406 70.9792 731.455 73.451 733.927 76.5 733.927 79.549 733.927 82.0208 731.455 82.0208 728.406 82.0208 725.357 79.549 722.885 76.5 722.885ZM76.5 724.718C77.3726 724.718 78.0803 725.425 78.0806 726.297 78.0809 727.17 77.3737 727.878 76.5011 727.878 75.6285 727.878 74.9208 727.171 74.9205 726.298 74.9205 726.298 74.9205 726.298 74.9205 726.297 74.9205 725.425 75.6277 724.718 76.5 724.718ZM79.6596 731.199 73.3404 731.199 73.3404 729.878C73.3417 729.63 73.4586 729.396 73.6568 729.246 74.124 728.91 74.6475 728.66 75.2026 728.509 75.6214 728.371 76.0592 728.3 76.5 728.299 76.9403 728.311 77.3772 728.382 77.799 728.509 78.3622 728.638 78.8899 728.89 79.3449 729.246 79.549 729.391 79.6677 729.628 79.6612 729.878Z"/><path d="M61.5938 722.885C58.5447 722.885 56.0729 725.357 56.0729 728.406 56.0729 731.455 58.5447 733.927 61.5938 733.927 64.6428 733.927 67.1146 731.455 67.1146 728.406 67.1146 725.357 64.6428 722.885 61.5938 722.885ZM61.5938 724.718C62.4664 724.718 63.174 725.425 63.1744 726.297 63.1747 727.17 62.4675 727.878 61.5949 727.878 60.7222 727.878 60.0146 727.171 60.0142 726.298 60.0142 726.298 60.0142 726.298 60.0142 726.297 60.0142 725.425 60.7214 724.718 61.5938 724.718ZM64.7533 731.199 58.4342 731.199 58.4342 729.878C58.4354 729.63 58.5524 729.396 58.7505 729.246 59.2178 728.91 59.7412 728.66 60.2964 728.509 60.7151 728.371 61.1529 728.3 61.5938 728.299 62.0341 728.311 62.4709 728.382 62.8928 728.509 63.4559 728.638 63.9837 728.89 64.4386 729.246 64.6428 729.391 64.7614 729.628 64.755 729.878Z"/><path d="M76.5 708.531C80.7687 708.531 84.2292 705.071 84.2292 700.802 84.2292 696.533 80.7687 693.073 76.5 693.073 72.2313 693.073 68.7708 696.533 68.7708 700.802 68.7708 705.071 72.2313 708.531 76.5 708.531ZM76.5 695.638C77.7215 695.638 78.7116 696.628 78.7116 697.85 78.7116 699.071 77.7215 700.061 76.5 700.061 75.2785 700.061 74.2884 699.071 74.2884 697.85 74.2887 696.628 75.2787 695.638 76.5 695.638ZM72.0767 702.862C72.0786 702.515 72.2418 702.189 72.5184 701.979 73.1721 701.509 73.9044 701.16 74.6809 700.947 75.2679 700.753 75.8818 700.654 76.5 700.651 77.1165 700.67 77.7279 700.769 78.3186 700.946 79.1062 701.128 79.8444 701.48 80.4811 701.978 80.7664 702.18 80.932 702.512 80.9227 702.861L80.9227 704.852 72.0767 704.852Z"/></g></svg>