<svg width="62" height="64" xmlns="http://www.w3.org/2000/svg" xmlns:xlink="http://www.w3.org/1999/xlink" xml:space="preserve" overflow="hidden"><g transform="translate(-116 -149)"><path d="M31.0039 9.04167C18.8766 9.04167 9.04554 18.8727 9.04554 31 9.04554 43.1273 18.8766 52.9583 31.0039 52.9583 43.1311 52.9583 52.9622 43.1273 52.9622 31 52.9487 18.8784 43.1255 9.05516 31.0039 9.04167ZM47.7678 21.3041C48.4804 22.5288 49.0559 23.8283 49.4837 25.1791L42.7122 25.1791C41.6421 25.1791 40.7747 24.3117 40.7747 23.2416 40.7747 22.1715 41.6421 21.3041 42.7122 21.3041ZM27.612 17.4375C28.682 17.4375 29.5495 18.3049 29.5495 19.375 29.5495 20.4451 28.682 21.3125 27.612 21.3125L22.9271 21.3125C21.857 21.3125 20.9896 22.1799 20.9896 23.25 20.9896 24.3201 21.857 25.1875 22.9271 25.1875L34.5521 25.1875C35.6222 25.1875 36.4896 26.0549 36.4896 27.125 36.4896 28.1951 35.6222 29.0625 34.5521 29.0625L11.7257 29.0625C12.1667 24.6783 14.0932 20.5764 17.1856 17.4375ZM20.108 36.8125C21.1781 36.8125 22.0455 37.6799 22.0455 38.75 22.0455 39.8201 21.1781 40.6875 20.108 40.6875L14.2348 40.6875C13.5228 39.4627 12.948 38.1633 12.5208 36.8125ZM30.0312 44.5625C28.9612 44.5625 28.0938 43.6951 28.0938 42.625 28.0938 41.5549 28.9612 40.6875 30.0312 40.6875L41.6562 40.6875C42.7263 40.6875 43.5938 39.8201 43.5938 38.75 43.5938 37.6799 42.7263 36.8125 41.6562 36.8125L40.2031 36.8125C39.133 36.8125 38.2656 35.9451 38.2656 34.875 38.2656 33.8049 39.133 32.9375 40.2031 32.9375L50.2781 32.9375C49.8377 37.3214 47.9122 41.423 44.8208 44.5625Z" fill="#C00000" transform="matrix(1 0 0 1.03226 116 149)"/></g></svg>