<svg width="53" height="53" xmlns="http://www.w3.org/2000/svg" xmlns:xlink="http://www.w3.org/1999/xlink" xml:space="preserve" overflow="hidden"><g transform="translate(-48 -372)"><path d="M93.2708 418.154 82.2292 407.665 93.2708 397.175 93.2708 418.154ZM57.4958 419.479 68.4271 409.155 69.2 408.438C72.1813 405.622 76.874 405.622 79.8552 408.438L80.6281 409.155 91.5042 419.479 57.4958 419.479ZM55.7292 397.12 66.7708 407.609 55.7292 418.099 55.7292 397.12ZM63.4583 383.042 85.5417 383.042 85.5417 401.426 80.5729 406.174C76.9844 403.414 72.0156 403.414 68.4271 406.174L63.4583 401.426 63.4583 383.042ZM88.8542 384.532 88.8542 379.729 81.125 379.729 74.5 374.208 67.875 379.729 60.1458 379.729 60.1458 384.587 52.4167 391.93 52.4167 422.792 96.5833 422.792 96.5833 391.93 88.8542 384.532Z"/><path d="M74.5 395.353C73.5062 395.353 72.7333 394.525 72.7333 393.586 72.7333 392.593 73.5615 391.82 74.5 391.82 75.4937 391.82 76.2667 392.593 76.2667 393.586 76.2667 394.58 75.4937 395.353 74.5 395.353ZM74.5 400.708C75.7698 400.708 76.9844 400.377 78.0885 399.825 78.5302 399.549 78.6958 398.997 78.475 398.555 78.199 398.114 77.6469 397.948 77.2052 398.169 76.3771 398.61 75.4385 398.831 74.5 398.831 71.574 398.831 69.1448 396.402 69.2 393.476 69.2 390.55 71.6292 388.121 74.5552 388.121 77.4812 388.121 79.9104 390.495 79.9104 393.476L79.9104 395.243C78.9167 395.243 78.1437 394.47 78.1437 393.476 78.1437 391.709 76.9292 390.219 75.2177 389.888 73.5062 389.556 71.7948 390.495 71.1875 392.096 70.5802 393.697 71.1875 395.574 72.6781 396.457 74.1687 397.341 76.101 397.065 77.2604 395.74 77.9229 396.513 78.9167 396.954 79.9656 396.954 80.9594 396.954 81.7323 396.181 81.7323 395.188L81.7323 393.421C81.7323 389.446 78.5302 386.244 74.5552 386.244 70.5802 386.244 67.3781 389.446 67.3781 393.421 67.3229 397.451 70.525 400.653 74.5 400.708Z"/></g></svg>