<svg width="62" height="62" xmlns="http://www.w3.org/2000/svg" xmlns:xlink="http://www.w3.org/1999/xlink" xml:space="preserve" overflow="hidden"><g transform="translate(-614 -1183)"><path d="M643.708 1192.04 646.292 1192.04 646.292 1199.79 643.708 1199.79Z" fill="#04759c"/><path d="M664.316 1196.54 659.156 1201.7 657.329 1199.88 662.49 1194.72Z" fill="#04759c"/><path d="M632.638 1199.84 630.812 1201.67 625.651 1196.51 627.478 1194.68Z" fill="#04759c"/><path d="M660.5 1210.12 666.958 1210.12 666.958 1212.71 660.5 1212.71Z" fill="#04759c"/><path d="M623.042 1210.12 629.5 1210.12 629.5 1212.71 623.042 1212.71Z" fill="#04759c"/><path d="M634.667 1228.21 636.862 1206.25 653.073 1206.25 655.333 1228.21 634.667 1228.21ZM663.083 1228.21 659.208 1228.21 656.883 1204.7C656.754 1203.41 655.656 1202.38 654.3 1202.38L635.7 1202.38C634.344 1202.38 633.246 1203.41 633.117 1204.7L630.792 1228.21 626.917 1228.21 626.917 1232.08 623.042 1232.08 623.042 1235.96 666.958 1235.96 666.958 1232.08 663.083 1232.08 663.083 1228.21Z" fill="#04759c"/><path d="M648.1 1208.83 649.715 1225.62 652.362 1225.62 650.683 1208.83Z" fill="#04759c"/></g></svg>