<svg width="66" height="64" xmlns="http://www.w3.org/2000/svg" xmlns:xlink="http://www.w3.org/1999/xlink" xml:space="preserve" overflow="hidden"><g transform="translate(-582 -1077)"><path d="M48.39 18.39 45.1307 21.6493 41.8713 18.39 39.986 20.2753 43.2453 23.5347 39.986 26.794 41.8713 28.68 45.1307 25.42 48.39 28.68 50.276 26.794 47.016 23.5347 50.276 20.2753 48.39 18.39Z" fill="#084F6A" transform="matrix(1.03125 0 0 1 582 1077)"/><path d="M32.8767 26.5333C33.1047 26.1643 33.373 25.8218 33.6767 25.512L32.256 24.104C31.8497 24.5176 31.4899 24.9745 31.1833 25.4667 31.0716 25.6436 30.9731 25.8285 30.8887 26.02L32.722 26.82C32.7663 26.7207 32.8179 26.6249 32.8767 26.5333Z" fill="#084F6A" transform="matrix(1.03125 0 0 1 582 1077)"/><path d="M36.6347 24.0607 36.3507 22.0813C35.5872 22.1881 34.845 22.4131 34.1507 22.748L35.026 24.548C35.5338 24.3033 36.0765 24.1389 36.6347 24.0607Z" fill="#084F6A" transform="matrix(1.03125 0 0 1 582 1077)"/><path d="M30.9567 28.78C31.3157 29.4693 31.7865 30.0942 32.35 30.6293L33.7793 29.2293C33.3724 28.8471 33.0284 28.4029 32.76 27.9133Z" fill="#084F6A" transform="matrix(1.03125 0 0 1 582 1077)"/><path d="M40.2373 22.3853C39.7031 22.2192 39.1534 22.1075 38.5967 22.052L38.3793 24.0407C38.7919 24.0821 39.1997 24.162 39.5973 24.2793Z" fill="#084F6A" transform="matrix(1.03125 0 0 1 582 1077)"/><path d="M37.2047 36.4 39.0667 35.6667C38.7933 34.9772 38.4427 34.321 38.0213 33.7107L36.3687 34.8373C36.7055 35.325 36.9859 35.8492 37.2047 36.4Z" fill="#084F6A" transform="matrix(1.03125 0 0 1 582 1077)"/><path d="M20.4993 45.3293C20.5313 45.3353 21.3093 45.4627 22.5427 45.6013L22.7607 43.6133C21.5913 43.4853 20.8407 43.3593 20.8333 43.358Z" fill="#084F6A" transform="matrix(1.03125 0 0 1 582 1077)"/><path d="M24.576 45.782C25.2673 45.8293 25.9553 45.862 26.6193 45.878L26.6673 43.878C26.0327 43.8633 25.3753 43.8327 24.7133 43.7873Z" fill="#084F6A" transform="matrix(1.03125 0 0 1 582 1077)"/><path d="M32.4307 43.486 32.8127 45.45C33.5134 45.3161 34.2039 45.1337 34.8793 44.904L34.2253 43.014C33.6389 43.213 33.0392 43.3707 32.4307 43.486Z" fill="#084F6A" transform="matrix(1.03125 0 0 1 582 1077)"/><path d="M35.8273 42.2667 36.894 43.9587C37.5698 43.5417 38.1608 43.0009 38.636 42.3647L37.0193 41.186C36.6939 41.6183 36.2894 41.9851 35.8273 42.2667Z" fill="#084F6A" transform="matrix(1.03125 0 0 1 582 1077)"/><path d="M37.6267 38.0767C37.6583 38.352 37.6741 38.6289 37.674 38.906 37.674 39.03 37.674 39.1553 37.6653 39.2827 37.6571 39.4494 37.6388 39.6155 37.6107 39.78L39.5813 40.1227C39.6234 39.8777 39.6505 39.6303 39.6627 39.382 39.6707 39.2207 39.674 39.0627 39.674 38.906 39.6741 38.5515 39.6536 38.1974 39.6127 37.8453Z" fill="#084F6A" transform="matrix(1.03125 0 0 1 582 1077)"/><path d="M35.1953 30.5827 33.83 32.0433C34.274 32.4587 34.748 32.91 35.204 33.4007L36.6667 32.0387C36.1687 31.5013 35.6433 31 35.1953 30.5827Z" fill="#084F6A" transform="matrix(1.03125 0 0 1 582 1077)"/><path d="M28.614 43.8753 28.6727 45.8753C29.3947 45.854 30.0893 45.8087 30.7393 45.7473L30.544 43.7567C29.9393 43.8153 29.29 43.8553 28.614 43.8753Z" fill="#084F6A" transform="matrix(1.03125 0 0 1 582 1077)"/><path d="M23.822 27.9993 25.1553 27.9993 25.1553 26.4213 27.6453 26.4213 24.4893 18.5313 21.3333 26.4213 23.822 26.4213 23.822 27.9993Z" fill="#084F6A" transform="matrix(1.03125 0 0 1 582 1077)"/><path d="M47.4093 40.0947 48.476 40.0947 45.9047 33.9993 43.3333 40.0947 44.3993 40.0947 42.6667 43.714 45.238 43.714 45.238 45.3327 46.5713 45.3327 46.5713 43.714 49.1427 43.714 47.4093 40.0947Z" fill="#084F6A" transform="matrix(1.03125 0 0 1 582 1077)"/><path d="M29.3333 39.3327 29.3333 40.666 30.6667 40.666 30.6667 39.3327 32.6667 39.3327 30 32.666 28 37.666 26 32.666 23.3333 39.3327 25.3333 39.3327 25.3333 40.666 26.6667 40.666 26.6667 39.3327 27.3333 39.3327 28.6667 39.3327 29.3333 39.3327Z" fill="#084F6A" transform="matrix(1.03125 0 0 1 582 1077)"/><path d="M52.2967 10.6667 18 10.6667 18 4 11.3333 4C8.3892 4.00331 6.00331 6.38919 6 9.33333L6 48C6.00331 50.9441 8.3892 53.33 11.3333 53.3333L46 53.3333 46 60 52.6667 60C55.6108 59.9967 57.9967 57.6108 58 54.6667L58 16C57.8914 12.9553 55.3419 10.5711 52.2967 10.6667ZM10 9.33333C10 8.59693 10.5969 8 11.3333 8L14 8 14 42.6667 11.3333 42.6667C10.8835 42.6665 10.4355 42.7231 10 42.8353ZM10 48C10 47.2636 10.5969 46.6667 11.3333 46.6667L18 46.6667 18 14.6667 52.2967 14.6667C53.1283 14.5888 53.8759 15.174 54 16L54 49.3333 11.3333 49.3333C10.5969 49.3333 10 48.7364 10 48ZM54 54.6667C54 55.4031 53.4031 56 52.6667 56L50 56 50 53.3333 54 53.3333Z" fill="#084F6A" transform="matrix(1.03125 0 0 1 582 1077)"/></g></svg>