<svg width="64" height="64" xmlns="http://www.w3.org/2000/svg" xmlns:xlink="http://www.w3.org/1999/xlink" xml:space="preserve" overflow="hidden"><g transform="translate(-335 -151)"><path d="M384.267 183.867C385.467 188.733 380.467 193.533 375.533 191.533 371.4 190.067 369.8 185.267 372.667 181.133 379.133 172.533 374.4 159 363.667 154.333 368.533 163.533 361.067 172 356.8 175.533 352.533 179.067 349.667 182.733 348.8 184.867 344.467 195.4 350.933 205.467 355.333 207.867 353.333 203.333 351.467 194.667 359.333 186.533 359.333 186.533 357.067 195.2 362 201.2 366.933 207.2 366.867 211.667 366.867 211.667 374.533 211.667 381.8 207.067 384.867 199.533 387.2 195.067 387.4 188 384.267 183.867" fill="#C00000"/></g></svg>