<svg width="65" height="65" xmlns="http://www.w3.org/2000/svg" xmlns:xlink="http://www.w3.org/1999/xlink" xml:space="preserve" overflow="hidden"><g transform="translate(-1218 -733)"><path d="M1273.92 742.089C1270.05 738.228 1263.83 738.103 1259.81 741.806L1226.78 774.799C1222.98 778.945 1223.25 785.392 1227.4 789.199 1231.3 792.781 1237.29 792.777 1241.19 789.189L1274.22 756.196C1277.92 752.173 1277.78 745.95 1273.92 742.089ZM1244.11 766.116C1243.58 766.647 1242.72 766.647 1242.19 766.116 1241.66 765.586 1241.66 764.725 1242.19 764.195 1242.72 763.664 1243.58 763.664 1244.11 764.194 1244.11 764.194 1244.11 764.195 1244.11 764.195 1244.64 764.725 1244.64 765.585 1244.11 766.115 1244.11 766.116 1244.11 766.116 1244.11 766.116ZM1247.95 769.96C1247.42 770.491 1246.56 770.491 1246.03 769.96 1245.5 769.43 1245.5 768.569 1246.03 768.038 1246.56 767.508 1247.42 767.508 1247.95 768.038 1247.95 768.038 1247.95 768.038 1247.95 768.038 1248.49 768.569 1248.49 769.429 1247.96 769.959 1247.96 769.959 1247.96 769.96 1247.95 769.96ZM1247.95 762.273C1247.42 762.804 1246.56 762.804 1246.03 762.273 1245.5 761.743 1245.5 760.882 1246.03 760.351 1246.56 759.821 1247.42 759.821 1247.95 760.351 1247.95 760.351 1247.95 760.351 1247.95 760.351 1248.49 760.882 1248.49 761.742 1247.96 762.272 1247.96 762.273 1247.96 762.273 1247.95 762.273ZM1251.8 773.803C1251.27 774.334 1250.41 774.334 1249.88 773.803 1249.35 773.273 1249.35 772.412 1249.88 771.882 1250.41 771.351 1251.27 771.351 1251.8 771.881 1251.8 771.881 1251.8 771.881 1251.8 771.882 1252.33 772.412 1252.33 773.272 1251.8 773.802 1251.8 773.803 1251.8 773.803 1251.8 773.803ZM1251.8 766.116C1251.27 766.647 1250.41 766.647 1249.88 766.116 1249.35 765.586 1249.35 764.725 1249.88 764.195 1250.41 763.664 1251.27 763.664 1251.8 764.194 1251.8 764.194 1251.8 764.195 1251.8 764.195 1252.33 764.725 1252.33 765.585 1251.8 766.115 1251.8 766.116 1251.8 766.116 1251.8 766.116ZM1251.8 758.43C1251.27 758.961 1250.41 758.961 1249.88 758.43 1249.35 757.899 1249.35 757.039 1249.88 756.508 1250.41 755.978 1251.27 755.977 1251.8 756.508 1251.8 756.508 1251.8 756.508 1251.8 756.508 1252.33 757.039 1252.33 757.898 1251.8 758.429 1251.8 758.429 1251.8 758.43 1251.8 758.43ZM1255.64 769.96C1255.11 770.491 1254.25 770.491 1253.72 769.96 1253.19 769.43 1253.19 768.569 1253.72 768.038 1254.25 767.508 1255.11 767.508 1255.64 768.038 1255.64 768.038 1255.64 768.038 1255.64 768.038 1256.17 768.569 1256.17 769.429 1255.64 769.959 1255.64 769.959 1255.64 769.96 1255.64 769.96ZM1255.64 762.273C1255.11 762.804 1254.25 762.804 1253.72 762.273 1253.19 761.743 1253.19 760.882 1253.72 760.351 1254.25 759.821 1255.11 759.821 1255.64 760.351 1255.64 760.351 1255.64 760.351 1255.64 760.351 1256.17 760.882 1256.17 761.742 1255.64 762.272 1255.64 762.273 1255.64 762.273 1255.64 762.273ZM1259.48 766.116C1258.95 766.647 1258.09 766.647 1257.56 766.116 1257.03 765.586 1257.03 764.725 1257.56 764.195 1258.09 763.664 1258.95 763.664 1259.48 764.194 1259.48 764.194 1259.48 764.195 1259.48 764.195 1260.02 764.725 1260.02 765.585 1259.49 766.115 1259.49 766.116 1259.49 766.116 1259.48 766.116Z" fill="#FFFFFF"/></g></svg>