<svg width="64" height="63" xmlns="http://www.w3.org/2000/svg" xmlns:xlink="http://www.w3.org/1999/xlink" xml:space="preserve" overflow="hidden"><g transform="translate(-2003 -198)"><path d="M52.8281 29.8594C52.8281 33.1213 50.1838 35.7656 46.9219 35.7656 43.6599 35.7656 41.0156 33.1213 41.0156 29.8594 41.0156 26.5974 43.6599 23.9531 46.9219 23.9531 50.1838 23.9531 52.8281 26.5974 52.8281 29.8594Z" fill="#C00000" transform="matrix(1.01587 0 0 1 2003 198)"/><path d="M18.375 40.3594 18.375 40.3594C19.2281 40.2938 20.0813 40.0969 20.9344 39.7687 22.2469 39.2437 23.5594 38.9813 24.9375 38.9156 26.3156 38.9813 27.6938 39.2437 28.9406 39.7687 29.7281 40.0969 30.5812 40.2938 31.5 40.3594 32.3531 40.2938 33.2062 40.0969 34.0594 39.7687 35.3719 39.2437 36.6844 38.9813 38.0625 38.9156 39.4406 38.9813 40.8188 39.2437 42.0656 39.7687L42.525 39.9C42.525 39.5719 42.3937 39.3094 42.2625 39.0469L40.95 36.6187 40.95 36.5531 34.3219 23.8219 45.4125 20.9344C47.1844 20.475 48.2344 18.7031 47.775 16.9312 47.3156 15.1594 45.5438 14.1094 43.7719 14.5688L28.6781 18.5063C27.6938 18.7688 26.9062 19.425 26.5125 20.3438 26.1187 21.2625 26.1187 22.3125 26.5781 23.1656L30.5812 30.9094 15.9469 39.5719C15.8813 39.6375 15.8156 39.7031 15.6844 39.7687L15.8156 39.8344C16.6687 40.0969 17.5219 40.2938 18.375 40.3594Z" fill="#C00000" transform="matrix(1.01587 0 0 1 2003 198)"/><path d="M55.125 44.0344C53.8781 43.5094 52.5656 43.2469 51.1875 43.1813L51.1875 43.1813C49.8094 43.2469 48.4969 43.5094 47.25 44.0344 46.3969 44.3625 45.5438 44.5594 44.625 44.625L44.625 44.625C43.7062 44.5594 42.8531 44.3625 42 44.0344 40.7531 43.5094 39.4406 43.2469 38.0625 43.1813L38.0625 43.1813C36.6844 43.2469 35.3719 43.5094 34.125 44.0344 33.2719 44.3625 32.4188 44.5594 31.5 44.625 30.5812 44.5594 29.7281 44.3625 28.875 44.0344 27.6281 43.5094 26.3156 43.2469 24.9375 43.1813L24.9375 43.1813C23.5594 43.2469 22.2469 43.5094 21 44.0344 20.1469 44.3625 19.2937 44.5594 18.375 44.625 17.4563 44.5594 16.6031 44.3625 15.75 44.0344 14.5031 43.5094 13.1906 43.2469 11.8125 43.1813L11.8125 43.1813C10.4344 43.2469 9.12187 43.5094 7.875 44.0344 7.02187 44.3625 6.16875 44.5594 5.25 44.625L5.25 48.5625C6.62813 48.4969 7.94063 48.2344 9.1875 47.7094 10.0406 47.3812 10.8938 47.1188 11.8125 47.1188 12.7312 47.1844 13.5844 47.3812 14.4375 47.7094 15.6844 48.2344 16.9969 48.4969 18.375 48.5625L18.375 48.5625C19.7531 48.4969 21.0656 48.2344 22.3125 47.7094 23.1656 47.3812 24.0187 47.1188 24.9375 47.1188 25.8563 47.1844 26.7094 47.3812 27.5625 47.7094 28.8094 48.2344 30.1219 48.4969 31.5 48.5625 32.8781 48.4969 34.1906 48.2344 35.4375 47.7094 36.2906 47.3812 37.1437 47.1188 38.0625 47.1188 38.9813 47.1844 39.8344 47.3812 40.6875 47.7094 41.9344 48.2344 43.2469 48.4969 44.625 48.5625L44.625 48.5625C46.0031 48.4969 47.3156 48.2344 48.5625 47.7094 49.4156 47.3812 50.2687 47.1188 51.1875 47.1188 52.1063 47.1844 52.9594 47.3812 53.8125 47.7094 55.0594 48.2344 56.3719 48.4969 57.75 48.5625L57.75 44.625C56.8312 44.5594 55.9781 44.3625 55.125 44.0344Z" fill="#C00000" transform="matrix(1.01587 0 0 1 2003 198)"/></g></svg>