<svg width="54" height="54" xmlns="http://www.w3.org/2000/svg" xmlns:xlink="http://www.w3.org/1999/xlink" xml:space="preserve" overflow="hidden"><g transform="translate(-65 -1189)"><path d="M92.0028 1200.39 92.0039 1200.39 113.074 1220.4 115.628 1218.22 92.0039 1195.75 92.0028 1195.75 68.3789 1218.22 70.9327 1220.4 92.0028 1200.39Z" fill="#04759c"/><path d="M89.925 1217.47 89.925 1218.84 94.1313 1218.84 94.1313 1217.47C94.138 1217.36 94.0545 1217.27 93.9449 1217.26 93.9369 1217.26 93.9289 1217.26 93.921 1217.26L90.1354 1217.26C90.0258 1217.26 89.9316 1217.34 89.925 1217.45 89.9245 1217.46 89.9245 1217.47 89.925 1217.47Z" fill="#04759c"/><path d="M75.1278 1219.52 75.1278 1236.25 108.878 1236.25 108.878 1219.52 92.0033 1203.49ZM100.441 1229.78C100.44 1230.25 100.064 1230.62 99.5995 1230.62L84.4569 1230.62C83.9927 1230.62 83.6168 1230.25 83.6157 1229.78L83.6157 1223.89 90.7663 1223.89 90.7663 1224.31C90.7674 1224.78 91.1434 1225.15 91.6075 1225.15L92.4488 1225.15C92.913 1225.15 93.2889 1224.78 93.29 1224.31L93.29 1223.89 100.441 1223.89ZM95.3932 1217.47 95.3932 1218.84 99.5995 1218.84C100.064 1218.84 100.44 1219.22 100.441 1219.68L100.441 1222.75 93.29 1222.75 93.29 1222.19 90.7663 1222.19 90.7663 1222.75 83.6156 1222.75 83.6156 1219.68C83.6168 1219.22 83.9926 1218.84 84.4569 1218.84L88.6631 1218.84 88.6631 1217.47C88.6579 1216.66 89.3089 1216.01 90.1171 1216 90.1232 1216 90.1293 1216 90.1354 1216L93.921 1216C94.7292 1216 95.3884 1216.65 95.3932 1217.45 95.3932 1217.46 95.3932 1217.47 95.3932 1217.47Z" fill="#04759c"/></g></svg>