<svg width="83" height="82" xmlns="http://www.w3.org/2000/svg" xmlns:xlink="http://www.w3.org/1999/xlink" xml:space="preserve" overflow="hidden"><g transform="translate(-74 -1075)"><path d="M46.9792 22.9771C46.9792 26.3083 44.3313 28.9563 41 28.9563 37.6688 28.9563 35.0208 26.3083 35.0208 22.9771 35.0208 19.6458 37.6688 16.9979 41 16.9979 44.3313 16.9979 46.9792 19.7313 46.9792 22.9771" fill="#084F6A" transform="matrix(1.0122 0 0 1 74 1075)"/><path d="M70.8958 26.3938C70.8958 29.725 68.2479 32.3729 64.9167 32.3729 61.5854 32.3729 58.9375 29.725 58.9375 26.3938 58.9375 23.0625 61.5854 20.4146 64.9167 20.4146 68.2479 20.4146 70.8958 23.0625 70.8958 26.3938" fill="#084F6A" transform="matrix(1.0122 0 0 1 74 1075)"/><path d="M23.0625 26.3938C23.0625 29.725 20.4146 32.3729 17.0833 32.3729 13.7521 32.3729 11.1042 29.725 11.1042 26.3938 11.1042 23.0625 13.7521 20.4146 17.0833 20.4146 20.4146 20.4146 23.0625 23.0625 23.0625 26.3938" fill="#084F6A" transform="matrix(1.0122 0 0 1 74 1075)"/><path d="M7.34583 65.0021C7.34583 52.5312 22.3792 42.4521 41 42.4521 59.5354 42.4521 74.6542 52.5312 74.6542 65.0021L7.34583 65.0021Z" fill="#084F6A" transform="matrix(1.0122 0 0 1 74 1075)"/><path d="M15.0333 45.6125C18.6208 43.2208 22.8063 41.3417 27.3333 40.1458L27.3333 39.2063C27.3333 38.2667 26.9062 37.3271 26.3083 36.7292 26.0521 36.4729 25.4542 36.1312 24.6854 35.7896 19.9875 33.5687 14.4354 33.5687 9.65208 35.7042 8.79792 36.0458 8.11458 36.4729 7.77292 36.7292 7.26042 37.3271 6.83333 38.2667 6.83333 39.2063L6.83333 53.7271C8.79792 50.7375 11.5312 47.9188 15.0333 45.6125" fill="#084F6A" transform="matrix(1.0122 0 0 1 74 1075)"/><path d="M51.25 39.2917 51.25 35.7896C51.25 34.85 50.8229 33.9104 50.225 33.3125 49.9688 33.0563 49.3708 32.7146 48.6021 32.3729 43.9042 30.1521 38.3521 30.1521 33.5687 32.2875 32.7146 32.6292 32.0312 33.0563 31.6896 33.3125 31.0063 33.9104 30.6646 34.85 30.6646 35.7896L30.6646 39.2917C33.9958 38.6083 37.4125 38.2667 40.9146 38.2667 44.4167 38.2667 47.9188 38.6937 51.25 39.2917" fill="#084F6A" transform="matrix(1.0122 0 0 1 74 1075)"/><path d="M75.1667 53.7271 75.1667 39.2063C75.1667 38.2667 74.7396 37.3271 74.1417 36.7292 73.8854 36.4729 73.2875 36.1312 72.5188 35.7896 67.8208 33.5687 62.2688 33.5687 57.4854 35.7042 56.6313 36.0458 55.9479 36.4729 55.6063 36.7292 54.9229 37.3271 54.5813 38.2667 54.5813 39.2063L54.5813 40.1458C59.1083 41.3417 63.2938 43.2208 66.8813 45.6125 70.4688 47.9188 73.2021 50.7375 75.1667 53.7271" fill="#084F6A" transform="matrix(1.0122 0 0 1 74 1075)"/></g></svg>