<svg width="59" height="69" xmlns="http://www.w3.org/2000/svg" xmlns:xlink="http://www.w3.org/1999/xlink" xml:space="preserve" overflow="hidden"><g transform="translate(-250 -1075)"><path d="M28.5167 54.7237C30.4182 54.7237 31.4052 53.6402 32.2902 52.4037 32.9767 51.4443 33.4198 50.8961 34.531 50.7941 35.8997 50.6712 37.1958 51.4154 38.6966 52.2789 41.1845 53.7146 44.2832 55.4969 48.7082 53.4073 49.3178 53.1085 49.5698 52.3722 49.271 51.7627 48.9785 51.1657 48.2644 50.9095 47.6591 51.1843 44.3957 52.7245 42.322 51.5304 39.9215 50.1488 38.2142 49.1654 36.4509 48.1489 34.3042 48.3462 32.0192 48.5558 31.0199 49.9527 30.2891 50.9729 29.4189 52.1886 28.9819 52.7989 26.2691 51.7104 25.6388 51.4583 24.9234 51.7648 24.6712 52.3951 24.4191 53.0254 24.7255 53.7408 25.3559 53.993 26.3539 54.4336 27.4264 54.6816 28.5167 54.7237Z" fill="#084F6A" transform="matrix(1 0 0 1.16949 250 1075)"/><path d="M43.0823 39.3087C44.4633 41.5434 47.4102 46.6131 48.632 51.0221 48.6375 51.0442 48.6242 51.0665 48.6021 51.0721 48.5859 51.0762 48.5687 51.07 48.5588 51.0565 47.4689 49.7496 46.2203 48.5838 44.8418 47.586L44.8418 47.586C44.824 47.5349 43.7719 44.537 40.6547 39.7973 40.6487 39.7881 40.6378 39.7833 40.627 39.785 39.5084 39.8836 38.3816 39.7407 37.323 39.3659 33.0105 38.1687 29.8866 34.07 29.5793 33.6503 29.567 33.6337 29.5793 33.6152 29.6014 33.6152 31.2667 33.5963 32.9071 33.2075 34.4038 32.477 34.4665 32.451 34.4963 32.3791 34.4703 32.3164 34.4475 32.2613 34.3883 32.2305 34.33 32.2435L34.3263 32.2435C31.0361 32.765 27.7137 31.5208 25.5753 28.9665 24.247 27.3697 22.7875 25.8868 21.2117 24.5336 19.2346 22.8355 16.7326 21.1497 14.4206 19.4067 14.3002 19.3109 14.2803 19.1358 14.376 19.0155 14.4179 18.9629 14.4774 18.9272 14.5435 18.915 16.0646 18.6309 17.5105 18.0352 18.7903 17.1653 18.8203 17.1451 18.8398 17.1128 18.8437 17.0768 18.852 17.0095 18.8041 16.9481 18.7367 16.9398 18.7192 16.9377 18.7014 16.9393 18.6846 16.9447 16.754 17.5345 14.7003 17.5948 12.7385 17.1192 11.5835 16.8341 10.5477 16.1924 9.77802 15.2853 7.73084 12.894 6.88948 10.3232 8.7572 7.42724 10.03 5.45258 12.8694 4.60016 16.5489 5.02483 18.7023 5.25331 20.5455 6.67069 21.3193 8.69328 21.5837 9.40214 21.7754 10.136 21.8915 10.8837 21.8915 10.9516 21.9465 11.0066 22.0144 11.0066 22.0823 11.0066 22.1373 10.9516 22.1373 10.8837 22.1557 10.7607 22.1711 10.6378 22.1852 10.5149 22.3219 9.29348 22.2569 8.05786 21.9929 6.85752 21.9567 6.71156 22.0457 6.56393 22.1916 6.52774 22.2447 6.51458 22.3005 6.51772 22.3518 6.53671 25.235 7.69255 27.9607 9.20781 30.4643 11.0465 33.3636 13.1333 36.0226 15.5352 38.3924 18.2083 39.9136 19.9169 40.7267 22.1409 40.6664 24.4278 40.6283 25.387 40.4664 26.3373 40.1845 27.2549 40.1614 27.3187 40.1942 27.3893 40.258 27.4124 40.3132 27.4325 40.3747 27.4108 40.4052 27.3606 41.1915 26.2026 41.7543 24.9078 42.0645 23.5428L42.1149 23.5349C43.5813 26.3484 45.17 30.755 45.4196 33.6755 45.5775 35.5266 45.0582 37.1872 44.1056 38.0919 44.0952 38.1026 44.0781 38.1029 44.0673 38.0925 44.0654 38.0907 44.0638 38.0886 44.0625 38.0863 41.7622 34.0209 37.1006 27.1031 33.7812 23.7758 31.2509 21.1791 28.4269 18.8858 25.3663 16.9422 24.9352 16.6705 24.4667 16.4634 23.9755 16.3276 23.9113 16.3056 23.8413 16.3397 23.8193 16.4038 23.8005 16.4585 23.8223 16.5189 23.8716 16.5489 26.3892 18.2996 28.7458 20.2713 30.9135 22.4403 34.7436 26.2753 40.0905 33.6595 42.6656 38.5626 42.7971 38.8183 42.9336 39.0635 43.0823 39.3087Z" fill="#084F6A" transform="matrix(1 0 0 1.16949 250 1075)"/></g></svg>