<svg width="85" height="87" xmlns="http://www.w3.org/2000/svg" xmlns:xlink="http://www.w3.org/1999/xlink" xml:space="preserve" overflow="hidden"><g transform="translate(-407 -1072)"><path d="M77.7396 16.8229 21.0729 16.8229C19.125 16.8229 17.5312 18.4167 17.5312 20.3646L17.5312 33.2031C18.5052 32.9375 19.6563 32.7604 20.7188 32.7604 21.4271 32.7604 22.1354 32.849 22.8438 32.9375L22.8438 22.1354 75.9688 22.1354 75.9688 55.7812 45.9531 55.7812 40.9062 61.0938 77.7396 61.0938C79.6875 61.0938 81.2813 59.5 81.2813 57.5521L81.2813 20.3646C81.2813 18.4167 79.6875 16.8229 77.7396 16.8229" fill="#084F6A" transform="matrix(1 0 0 1.02353 407 1072)"/><path d="M20.8073 51.3542C24.9688 51.3542 28.3333 47.9896 28.3333 43.8281 28.3333 39.6667 24.9688 36.3021 20.8073 36.3021 16.6458 36.3021 13.2812 39.6667 13.2812 43.8281 13.1927 47.9896 16.6458 51.3542 20.8073 51.3542" fill="#084F6A" transform="matrix(1 0 0 1.02353 407 1072)"/><path d="M49.7604 42.5885C48.6094 40.8177 46.3073 40.375 44.5365 41.4375 44.1823 41.6146 44.0052 41.9688 43.8281 42.1458L30.901 55.6042C29.6615 54.9844 28.3333 54.4531 27.0052 54.0104 24.9688 53.6562 22.8438 53.2135 20.8073 53.2135 18.7708 53.2135 16.6458 53.5677 14.6094 54.1875 11.599 54.9844 8.94271 56.4896 6.72917 58.349 6.19792 58.8802 5.75521 59.6771 5.57813 60.3854L3.71875 68.1771 30.1927 68.1771 30.1927 68.0885 37.7188 59.3229 49.3177 47.1042C50.3802 46.0417 50.7344 44.0052 49.7604 42.5885" fill="#084F6A" transform="matrix(1 0 0 1.02353 407 1072)"/></g></svg>