<svg width="65" height="65" xmlns="http://www.w3.org/2000/svg" xmlns:xlink="http://www.w3.org/1999/xlink" xml:space="preserve" overflow="hidden"><g transform="translate(-965 -729)"><path d="M997.538 750.542C1002.58 750.542 1006.66 746.459 1006.66 741.422 1006.66 736.384 1002.58 732.3 997.539 732.3 992.502 732.3 988.418 736.383 988.418 741.42 988.418 741.421 988.418 741.421 988.418 741.422 988.418 746.459 992.501 750.542 997.538 750.542Z" fill="#FFFFFF"/><path d="M1015.75 761.526C1015.61 760.252 1014.96 759.089 1013.95 758.295 1011.31 756.269 1008.29 754.796 1005.06 753.961 1002.62 753.215 1000.09 752.83 997.536 752.821 996.252 752.829 994.971 752.94 993.705 753.153 993.656 753.159 993.608 753.168 993.559 753.175L993.438 753.195 993.438 753.195C993.284 753.22 993.131 753.243 992.979 753.278L990.733 753.764 989.93 753.984 989.93 753.994C986.774 754.923 983.797 756.376 981.123 758.293 980.669 758.658 980.283 759.1 979.981 759.598 979.976 759.607 979.971 759.617 979.966 759.626 979.898 759.74 979.83 759.854 979.772 759.972 979.703 760.111 979.641 760.253 979.587 760.398 979.553 760.488 979.528 760.581 979.5 760.673 979.486 760.721 979.467 760.766 979.454 760.815L979.443 760.859C979.434 760.891 979.425 760.922 979.417 760.954L973.275 784.157C972.62 786.497 973.986 788.926 976.327 789.581 978.668 790.235 981.096 788.869 981.751 786.528 981.762 786.488 981.773 786.449 981.783 786.409L985.275 773.214C985.277 773.204 985.285 773.197 985.295 773.198 985.305 773.2 985.312 773.209 985.31 773.218L985.31 790.699 1009.69 790.699 1009.69 780.959C1013.26 779.98 1015.75 776.744 1015.78 773.037L1015.78 761.943ZM992.76 773.037C992.761 772.889 992.769 772.741 992.786 772.593 992.993 770.378 994.533 768.515 996.67 767.895L991.548 755.688 993.431 755.262C993.704 755.203 993.98 755.163 994.257 755.143L999.514 767.678 1013.75 767.678 1013.75 773.037C1013.75 776.294 1011.03 779.151 1007.94 779.151L992.76 779.151Z" fill="#FFFFFF"/></g></svg>