<svg width="63" height="64" xmlns="http://www.w3.org/2000/svg" xmlns:xlink="http://www.w3.org/1999/xlink" xml:space="preserve" overflow="hidden"><g transform="translate(-556 -151)"><path d="M31.5 10.5C19.8844 10.5 10.5 19.8844 10.5 31.5 10.5 43.1156 19.8844 52.5 31.5 52.5 43.1156 52.5 52.5 43.1156 52.5 31.5 52.5 19.8844 43.1156 10.5 31.5 10.5ZM31.5 56.4375C17.7188 56.4375 6.5625 45.2812 6.5625 31.5 6.5625 17.7188 17.7188 6.5625 31.5 6.5625 45.2812 6.5625 56.4375 17.7188 56.4375 31.5 56.4375 45.2812 45.2812 56.4375 31.5 56.4375Z" fill="#C00000" transform="matrix(1 0 0 1.01587 556 151)"/><path d="M44.625 26.25 36.75 26.25 36.75 18.375C36.75 16.9312 35.5688 15.75 34.125 15.75L28.875 15.75C27.4312 15.75 26.25 16.9312 26.25 18.375L26.25 26.25 18.375 26.25C16.9312 26.25 15.75 27.4312 15.75 28.875L15.75 34.125C15.75 35.5688 16.9312 36.75 18.375 36.75L26.25 36.75 26.25 44.625C26.25 46.0687 27.4312 47.25 28.875 47.25L34.125 47.25C35.5688 47.25 36.75 46.0687 36.75 44.625L36.75 36.75 44.625 36.75C46.0687 36.75 47.25 35.5688 47.25 34.125L47.25 28.875C47.25 27.4312 46.0687 26.25 44.625 26.25Z" fill="#C00000" transform="matrix(1 0 0 1.01587 556 151)"/></g></svg>