<svg width="54" height="55" xmlns="http://www.w3.org/2000/svg" xmlns:xlink="http://www.w3.org/1999/xlink" xml:space="preserve" overflow="hidden"><g transform="translate(-338 -1188)"><path d="M25.875 5.625C14.625 6.1875 5.625 15.6375 5.625 27 5.625 38.8125 15.1875 48.375 27 48.375 32.3438 48.375 37.35 46.4625 41.2875 42.8625L25.875 27.45 25.875 5.625Z" fill="#04759c" transform="matrix(1 0 0 1.01852 338 1188)"/><path d="M28.125 5.625 28.125 25.875 48.3188 25.875C47.7563 14.9062 39.0375 6.1875 28.125 5.625Z" fill="#04759c" transform="matrix(1 0 0 1.01852 338 1188)"/><path d="M29.7 28.125 42.8625 41.2875C46.1812 37.6313 48.0938 33.0187 48.3188 28.125L29.7 28.125Z" fill="#04759c" transform="matrix(1 0 0 1.01852 338 1188)"/></g></svg>