<svg width="65" height="65" xmlns="http://www.w3.org/2000/svg" xmlns:xlink="http://www.w3.org/1999/xlink" xml:space="preserve" overflow="hidden"><g transform="translate(-1492 -728)"><path d="M1553.34 782.167 1526.87 736.125C1525.85 734.297 1523.21 734.297 1522.2 736.125L1495.66 782.167C1494.64 783.995 1495.93 786.229 1498.03 786.229L1524.5 786.229 1550.97 786.229C1553.07 786.229 1554.36 783.995 1553.34 782.167ZM1522.47 746.958 1526.53 746.958 1526.53 770.656 1522.47 770.656 1522.47 746.958ZM1524.5 780.135C1522.6 780.135 1521.11 778.646 1521.11 776.75 1521.11 774.854 1522.6 773.365 1524.5 773.365 1526.4 773.365 1527.89 774.854 1527.89 776.75 1527.89 778.646 1526.4 780.135 1524.5 780.135Z" fill="#FFFFFF"/></g></svg>