<svg width="53" height="53" xmlns="http://www.w3.org/2000/svg" xmlns:xlink="http://www.w3.org/1999/xlink" xml:space="preserve" overflow="hidden"><g transform="translate(-52 -770)"><path d="M88.4375 814.167 68.5625 814.167 68.5625 778.833 88.4375 778.833 88.4375 814.167ZM76.2917 774.417 80.7083 774.417C81.3156 774.417 81.8125 774.914 81.8125 775.521 81.8125 776.128 81.3156 776.625 80.7083 776.625L76.2917 776.625C75.6844 776.625 75.1875 776.128 75.1875 775.521 75.1875 774.914 75.6844 774.417 76.2917 774.417ZM90.6458 772.208 66.3542 772.208C65.7469 772.208 65.25 772.705 65.25 773.312L65.25 819.688C65.25 820.295 65.7469 820.792 66.3542 820.792L90.6458 820.792C91.2531 820.792 91.75 820.295 91.75 819.688L91.75 773.312C91.75 772.705 91.2531 772.208 90.6458 772.208Z"/></g></svg>