<svg width="51" height="51" xmlns="http://www.w3.org/2000/svg" xmlns:xlink="http://www.w3.org/1999/xlink" xml:space="preserve" overflow="hidden"><g transform="translate(-203 -1190)"><path d="M215.219 1200.62 221.062 1200.62 221.062 1203.81 235.938 1203.81 235.938 1200.62 241.781 1200.62 241.781 1233.56 215.219 1233.56 215.219 1200.62ZM228.553 1196.38C229.403 1196.38 230.094 1197.12 230.094 1197.97 230.094 1198.87 229.403 1199.56 228.5 1199.56 227.597 1199.56 226.906 1198.87 226.906 1197.97 226.906 1197.07 227.597 1196.38 228.553 1196.38ZM212.031 1199.56 212.031 1234.62C212.031 1235.79 212.988 1236.75 214.156 1236.75L242.844 1236.75C244.012 1236.75 244.969 1235.79 244.969 1234.62L244.969 1199.56C244.969 1198.39 244.012 1197.44 242.844 1197.44L233.812 1197.44 233.812 1196.38C233.812 1195.21 232.856 1194.25 231.688 1194.25L225.312 1194.25C224.144 1194.25 223.188 1195.21 223.188 1196.38L223.188 1197.44 214.156 1197.44C212.988 1197.44 212.031 1198.39 212.031 1199.56Z" fill="#A6A6A6"/><path d="M218.406 1208.06 227.438 1208.06 227.438 1210.19 218.406 1210.19Z" fill="#A6A6A6"/><path d="M218.406 1214.44 227.438 1214.44 227.438 1216.56 218.406 1216.56Z" fill="#A6A6A6"/><path d="M218.406 1220.81 227.438 1220.81 227.438 1222.94 218.406 1222.94Z" fill="#A6A6A6"/><path d="M218.406 1227.19 227.438 1227.19 227.438 1229.31 218.406 1229.31Z" fill="#A6A6A6"/><path d="M231.103 1209.02 232.219 1207.9 233.6 1209.28 237.106 1205.78 238.222 1206.89 233.6 1211.52Z" fill="#A6A6A6"/><path d="M231.103 1215.39 232.219 1214.28 233.6 1215.66 237.106 1212.15 238.222 1213.27 233.6 1217.89Z" fill="#A6A6A6"/><path d="M231.103 1221.77 232.219 1220.65 233.6 1222.03 237.106 1218.53 238.222 1219.64 233.6 1224.27Z" fill="#A6A6A6"/><path d="M231.103 1228.14 232.219 1227.03 233.6 1228.41 237.106 1224.9 238.222 1226.02 233.6 1230.64Z" fill="#A6A6A6"/></g></svg>