<svg width="53" height="53" xmlns="http://www.w3.org/2000/svg" xmlns:xlink="http://www.w3.org/1999/xlink" xml:space="preserve" overflow="hidden"><g transform="translate(-54 -521)"><path d="M66.6979 528.729 94.3021 528.729 94.3021 566.271 66.6979 566.271 66.6979 528.729ZM63.3854 569.583 97.6146 569.583 97.6146 525.417 63.3854 525.417 63.3854 569.583Z"/><path d="M81.0521 557.438 90.9896 557.438 90.9896 559.646 81.0521 559.646Z"/><path d="M70.0104 533.146 90.9896 533.146 90.9896 535.354 70.0104 535.354Z"/><path d="M70.0104 537.562 90.9896 537.562 90.9896 539.771 70.0104 539.771Z"/><path d="M70.0104 541.979 90.9896 541.979 90.9896 544.188 70.0104 544.188Z"/><path d="M70.0104 546.396 80.5 546.396 80.5 548.604 70.0104 548.604Z"/><path d="M71.7219 562.406 73.875 560.253 76.0281 562.406 77.7396 560.695 75.5865 558.542 77.7396 556.389 76.0281 554.677 73.875 556.83 71.7219 554.677 70.0104 556.389 72.1635 558.542 70.0104 560.695Z"/></g></svg>