<svg width="63" height="64" xmlns="http://www.w3.org/2000/svg" xmlns:xlink="http://www.w3.org/1999/xlink" xml:space="preserve" overflow="hidden"><g transform="translate(-1781 -195)"><path d="M28.2188 36.2906C28.0219 36.2906 27.7594 36.2906 27.5625 36.3563 23.3625 37.4719 21.2625 39.2437 21 40.425 20.5406 43.05 28.35 43.3125 27.2344 46.0687 26.4469 48.0375 25.3969 48.825 27.0375 50.0062 29.925 52.0406 35.8312 48.5625 39.2437 49.0875 42.9188 49.6781 38.325 51.9094 44.3625 52.5 51.975 53.2219 57.4219 50.1375 55.8469 48.4313 54.4031 46.8563 50.1375 47.6437 52.0406 45.5438 53.8781 43.5094 59.325 44.7562 60.5062 42 61.95 38.5219 49.4156 39.8344 50.5969 37.8 51.1875 36.8813 57.4219 35.3719 53.6813 33.4688 48.7594 30.975 44.1 34.4531 39.4406 32.2219 40.0969 31.2375 40.6219 30.1875 41.0156 29.0719 43.2469 23.1 41.6063 17.1938 37.3406 15.5531 37.275 15.5531 37.2094 15.4875 37.1437 15.4875L37.0781 15.4875C36.8156 15.4219 36.5531 15.3562 36.2906 15.2906L10.9594 8.85938C10.8938 8.85938 10.8938 8.85938 10.8281 8.85938L10.8281 8.85938C9.05625 8.53125 7.28438 8.99062 5.90625 10.1062 4.2 11.4187 2.8875 13.1906 2.23125 15.1594 1.44375 17.1281 1.24687 19.3594 1.70625 21.3937 2.03437 23.3625 3.34687 25.0031 5.18438 25.7906L28.2188 36.2906ZM37.4062 27.6938C36.9469 29.0063 36.225 30.1875 35.3062 31.2375L28.7437 29.2687C28.6781 27.6938 28.875 26.1187 29.4656 24.675 30.7781 21.1313 33.3375 19.0969 35.2406 19.0969 35.3719 19.0969 35.4375 19.0969 35.5688 19.0969L36.0938 19.2281C37.9312 20.0156 38.9156 23.625 37.4062 27.6938ZM14.7 19.7531C15.4219 17.9156 15.6187 15.9469 15.3562 13.9781L29.5312 17.5875C27.825 19.1625 26.5125 21.1313 25.725 23.2969 25.1344 24.8062 24.8062 26.4469 24.7406 28.0875L11.6812 24.2156C13.0594 22.9688 14.0437 21.4594 14.7 19.7531ZM5.97188 16.4719C6.43125 15.1594 7.21875 14.0437 8.26875 13.1906 8.72813 12.8625 9.25313 12.6656 9.77812 12.6 9.84375 12.6 9.90938 12.6 9.975 12.6L10.2375 12.6656C10.9594 12.9281 11.2875 13.9125 11.3531 14.3719 11.6156 15.6844 11.4844 17.1281 10.9594 18.375 9.975 21.0656 7.875 22.6406 6.69375 22.1812 5.97188 21.9188 5.64375 20.9344 5.57812 20.475 5.31563 19.1625 5.44688 17.7844 5.97188 16.4719L5.97188 16.4719Z" fill="#C00000" transform="matrix(1 0 0 1.01587 1781 195)"/><path d="M20.1469 45.9375C18.5719 45.9375 17.325 46.725 17.325 47.7094 17.325 48.6937 18.5719 49.4813 20.1469 49.4813 21.7219 49.4813 22.9688 48.6937 22.9688 47.7094 22.9688 46.725 21.7219 45.9375 20.1469 45.9375Z" fill="#C00000" transform="matrix(1 0 0 1.01587 1781 195)"/><path d="M38.5875 52.6312C37.5375 52.6312 36.6844 53.1562 36.6844 53.8781 36.6844 54.6 37.5375 55.125 38.5875 55.125 39.6375 55.125 40.4906 54.6 40.4906 53.8781 40.4906 53.1562 39.7031 52.6312 38.5875 52.6312Z" fill="#C00000" transform="matrix(1 0 0 1.01587 1781 195)"/><path d="M59.3906 46.2C58.3406 46.2 57.4875 46.725 57.4875 47.4469 57.4875 48.1688 58.3406 48.6937 59.3906 48.6937 60.4406 48.6937 61.2938 48.1688 61.2938 47.4469 61.2938 46.725 60.5062 46.2 59.3906 46.2Z" fill="#C00000" transform="matrix(1 0 0 1.01587 1781 195)"/></g></svg>