<svg width="65" height="65" xmlns="http://www.w3.org/2000/svg" xmlns:xlink="http://www.w3.org/1999/xlink" xml:space="preserve" overflow="hidden"><g transform="translate(-2037 -730)"><path d="M2075.24 780.64 2063.58 780.64C2062.5 780.64 2061.63 781.514 2061.63 782.592 2061.63 783.669 2062.5 784.543 2063.58 784.543L2075.24 784.543C2076.31 784.543 2077.19 783.669 2077.19 782.592 2077.19 781.514 2076.31 780.64 2075.24 780.64Z" fill="#FFFFFF"/><path d="M2069.41 791.16C2071.62 791.159 2073.46 789.458 2073.64 787.251L2065.18 787.251C2065.35 789.458 2067.2 791.16 2069.41 791.16Z" fill="#FFFFFF"/><path d="M2086.32 760.113 2086.32 759.528C2086.15 750.292 2078.65 742.875 2069.41 742.813L2069.41 742.813C2060.17 742.874 2052.67 750.291 2052.5 759.528L2052.5 760.113C2052.56 762.116 2052.96 764.094 2053.68 765.966 2054.36 767.732 2055.36 769.362 2056.61 770.779 2058.16 772.471 2059.86 775.754 2060.58 777.211 2060.8 777.653 2061.25 777.933 2061.74 777.933L2077.08 777.933C2077.57 777.933 2078.02 777.653 2078.24 777.211 2078.96 775.755 2080.65 772.471 2082.2 770.779 2083.46 769.362 2084.46 767.732 2085.14 765.966 2085.86 764.094 2086.25 762.116 2086.32 760.113ZM2082.42 760.045C2082.36 761.604 2082.04 763.142 2081.48 764.599 2080.97 765.912 2080.22 767.123 2079.29 768.176 2077.8 769.973 2076.52 771.937 2075.48 774.029L2063.33 774.029C2062.3 771.937 2061.02 769.973 2059.53 768.176 2058.59 767.123 2057.85 765.912 2057.33 764.599 2056.77 763.143 2056.46 761.605 2056.4 760.046L2056.4 759.559C2056.53 752.457 2062.3 746.757 2069.41 746.715L2069.41 746.715C2076.51 746.756 2082.28 752.458 2082.41 759.56Z" fill="#FFFFFF"/><path d="M2069.54 740.156C2070.29 740.156 2070.9 739.55 2070.9 738.802L2070.9 734.062C2070.9 733.315 2070.29 732.708 2069.54 732.708 2068.79 732.708 2068.19 733.315 2068.19 734.062L2068.19 738.802C2068.19 739.55 2068.79 740.156 2069.54 740.156Z" fill="#FFFFFF"/><path d="M2053.47 746.115C2053.99 746.653 2054.85 746.667 2055.39 746.148 2055.92 745.628 2055.94 744.771 2055.42 744.233 2055.41 744.222 2055.4 744.211 2055.39 744.2L2052.03 740.846C2051.49 740.326 2050.64 740.341 2050.12 740.879 2049.61 741.404 2049.61 742.236 2050.12 742.76Z" fill="#FFFFFF"/><path d="M2084.67 746.765C2085.03 746.765 2085.38 746.622 2085.63 746.368L2088.98 743.017C2089.49 742.469 2089.46 741.612 2088.91 741.103 2088.39 740.621 2087.59 740.621 2087.07 741.104L2083.72 744.454C2083.19 744.983 2083.19 745.84 2083.72 746.369 2083.97 746.623 2084.32 746.765 2084.68 746.765Z" fill="#FFFFFF"/><path d="M2048.51 758.099 2043.77 758.099C2043.02 758.099 2042.42 758.705 2042.42 759.453 2042.42 760.201 2043.02 760.807 2043.77 760.807L2048.51 760.807C2049.26 760.807 2049.86 760.201 2049.86 759.453 2049.86 758.705 2049.26 758.099 2048.51 758.099Z" fill="#FFFFFF"/><path d="M2053.47 772.748 2050.12 776.1C2049.57 776.606 2049.53 777.463 2050.04 778.013 2050.54 778.564 2051.4 778.6 2051.95 778.094 2051.98 778.069 2052.01 778.042 2052.03 778.015L2055.38 774.663C2055.92 774.144 2055.94 773.286 2055.42 772.748 2054.9 772.21 2054.04 772.195 2053.5 772.715 2053.49 772.726 2053.48 772.737 2053.47 772.748Z" fill="#FFFFFF"/><path d="M2085.63 772.492C2085.12 771.944 2084.27 771.913 2083.72 772.422 2083.17 772.931 2083.14 773.788 2083.65 774.336 2083.67 774.36 2083.69 774.384 2083.72 774.406L2087.07 777.757C2087.61 778.277 2088.46 778.262 2088.98 777.724 2089.49 777.199 2089.49 776.367 2088.98 775.843Z" fill="#FFFFFF"/><path d="M2095.06 758.053 2090.32 758.053C2089.57 758.053 2088.97 758.659 2088.97 759.407 2088.97 760.155 2089.57 760.761 2090.32 760.761L2095.06 760.761C2095.81 760.761 2096.41 760.155 2096.41 759.407 2096.41 758.659 2095.81 758.053 2095.06 758.053Z" fill="#FFFFFF"/></g></svg>