<svg width="65" height="65" xmlns="http://www.w3.org/2000/svg" xmlns:xlink="http://www.w3.org/1999/xlink" xml:space="preserve" overflow="hidden"><g transform="translate(-1755 -734)"><path d="M1787.5 740.771C1773.28 740.771 1761.77 752.281 1761.77 766.5 1761.77 780.719 1773.28 792.229 1787.5 792.229 1801.72 792.229 1813.23 780.719 1813.23 766.5 1813.23 752.281 1801.72 740.771 1787.5 740.771ZM1769.9 766.5C1769.9 763.115 1770.84 759.932 1772.54 757.292L1796.78 781.531C1794.07 783.156 1790.89 784.104 1787.5 784.104 1777.82 784.104 1769.9 776.182 1769.9 766.5ZM1802.46 775.708 1778.29 751.536C1780.93 749.844 1784.11 748.896 1787.5 748.896 1797.18 748.896 1805.1 756.818 1805.1 766.5 1805.1 769.885 1804.16 773.068 1802.46 775.708Z" fill="#FFFFFF"/></g></svg>